<mxfile host="app.diagrams.net" modified="2023-05-13T06:07:02.618Z" agent="Mozilla/5.0 (Windows NT 10.0; Win64; x64) AppleWebKit/537.36 (KHTML, like Gecko) Chrome/113.0.0.0 Safari/537.36" etag="7ykSaBPEHyP5HCefyR2K" version="21.2.9">
  <diagram name="Page-1" id="MqEHJxqcGR0iH7Ui8UXM">
    <mxGraphModel dx="677" dy="-728" grid="1" gridSize="10" guides="1" tooltips="1" connect="1" arrows="1" fold="1" page="1" pageScale="1" pageWidth="850" pageHeight="1100" math="0" shadow="0">
      <root>
        <mxCell id="0" />
        <mxCell id="1" parent="0" />
        <mxCell id="JPP7-0GU8lm2cm0_T6wu-78" style="edgeStyle=orthogonalEdgeStyle;rounded=0;orthogonalLoop=1;jettySize=auto;html=1;exitX=0.5;exitY=0;exitDx=0;exitDy=0;entryX=0.5;entryY=0;entryDx=0;entryDy=0;" edge="1" parent="1" source="JPP7-0GU8lm2cm0_T6wu-75" target="JPP7-0GU8lm2cm0_T6wu-76">
          <mxGeometry relative="1" as="geometry" />
        </mxCell>
        <mxCell id="JPP7-0GU8lm2cm0_T6wu-79" style="edgeStyle=orthogonalEdgeStyle;rounded=0;orthogonalLoop=1;jettySize=auto;html=1;exitX=0.5;exitY=0;exitDx=0;exitDy=0;entryX=0.5;entryY=0;entryDx=0;entryDy=0;" edge="1" parent="1" source="JPP7-0GU8lm2cm0_T6wu-75" target="JPP7-0GU8lm2cm0_T6wu-77">
          <mxGeometry relative="1" as="geometry" />
        </mxCell>
        <mxCell id="JPP7-0GU8lm2cm0_T6wu-75" value="category_id" style="rounded=0;whiteSpace=wrap;html=1;fontStyle=5;fontFamily=Courier New;labelBackgroundColor=none;" vertex="1" parent="1">
          <mxGeometry x="60" y="1720" width="120" height="60" as="geometry" />
        </mxCell>
        <mxCell id="JPP7-0GU8lm2cm0_T6wu-76" value="category_name" style="rounded=0;whiteSpace=wrap;html=1;fontFamily=Courier New;labelBackgroundColor=none;" vertex="1" parent="1">
          <mxGeometry x="180" y="1720" width="120" height="60" as="geometry" />
        </mxCell>
        <mxCell id="JPP7-0GU8lm2cm0_T6wu-77" value="parent_id" style="rounded=0;whiteSpace=wrap;html=1;fontFamily=Courier New;labelBackgroundColor=none;" vertex="1" parent="1">
          <mxGeometry x="300" y="1720" width="120" height="60" as="geometry" />
        </mxCell>
      </root>
    </mxGraphModel>
  </diagram>
</mxfile>
